<svg width="40" height="40" viewBox="0 0 40 40" fill="none" xmlns="http://www.w3.org/2000/svg">
<path d="M20.0834 0C25.4112 0.00264352 30.4119 2.06661 34.172 5.8131C37.9323 9.55943 40.002 14.5398 40 19.8352C39.9956 30.6549 31.2381 39.4778 20.4125 39.6532L20.0839 39.6559H20.0756C16.7936 39.6548 13.5678 38.8482 10.6927 37.3164L10.5583 37.2439L0 40L2.82547 29.7284C1.08281 26.7232 0.165781 23.313 0.167188 19.8194C0.171563 8.89124 9.10609 0 20.0834 0ZM20.0903 3.34794C10.9595 3.34794 3.53344 10.7378 3.52984 19.8211C3.52859 22.8863 4.37734 25.8734 5.98594 28.4688L6.06062 28.5884L6.45437 29.2118L4.78203 35.2908L11.0472 33.6554L11.6517 34.0121C14.1528 35.4892 17.0142 36.2823 19.9356 36.3079L20.077 36.3086H20.0839C29.2077 36.3086 36.6336 28.9182 36.6373 19.8343C36.6389 15.4324 34.9189 11.2931 31.7934 8.1792C28.668 5.06545 24.5117 3.34934 20.0903 3.34778V3.34794ZM13.0325 10.6663C13.3641 10.6663 13.6966 10.6694 13.9863 10.6842C14.2919 10.6991 14.702 10.5686 15.1058 11.5341C15.2608 11.9042 15.4964 12.476 15.7377 13.0601L15.7894 13.1852C16.1777 14.1252 16.5658 15.0625 16.6405 15.2113C16.7647 15.459 16.8475 15.7485 16.6817 16.0788C16.5161 16.4096 16.4328 16.6159 16.1842 16.9055C15.9353 17.1944 15.6617 17.5512 15.4378 17.773C15.4256 17.785 15.4134 17.7971 15.4013 17.8092L15.365 17.8461C15.1431 18.0745 14.9575 18.3364 15.2197 18.7833C15.5098 19.2793 16.5084 20.9015 17.9878 22.2146C19.8886 23.9018 21.4922 24.4249 21.9898 24.6729C22.4873 24.9208 22.7778 24.8794 23.068 24.5485C23.3584 24.2182 24.3119 23.1026 24.6438 22.6067C24.9755 22.111 25.3072 22.1939 25.7634 22.359C25.9802 22.4376 26.6469 22.7495 27.3403 23.082L27.5559 23.1855C28.2502 23.5198 28.9272 23.8523 29.1637 23.9702C29.6614 24.2182 29.9933 24.3421 30.1175 24.5485C30.2419 24.7553 30.2419 25.7466 29.8272 26.9035C29.4127 28.0605 27.4244 29.1163 26.4683 29.2588C25.6109 29.386 24.5261 29.4391 23.3339 29.0625C22.6114 28.8339 21.6842 28.5293 20.4969 28.0191C15.505 25.8741 12.2445 20.8713 11.9959 20.5411L11.9791 20.5187C11.6758 20.1153 9.96375 17.806 9.96375 15.4176C9.96375 12.9801 11.2495 11.782 11.7055 11.2861C12.1617 10.7907 12.7008 10.6663 13.0325 10.6663V10.6663Z" fill="white"/>
</svg>
